<svg width="503" height="269" viewBox="0 0 503 269" version="1.1" xmlns="http://www.w3.org/2000/svg" xmlns:xlink="http://www.w3.org/1999/xlink" xml:space="preserve" xmlns:serif="http://www.serif.com/" style="fill-rule:evenodd;clip-rule:evenodd;stroke-linejoin:round;stroke-miterlimit:2;">
    <g transform="matrix(1.01598,0,0,1.01598,-172.739,-109.891)">
        <path d="M294.03,299.354C294.03,300.341 293.685,301.032 292.994,301.426C292.304,301.821 291.465,301.821 290.479,301.426L172.094,245.489C170.713,244.7 170.022,243.516 170.022,241.938L170.022,235.427C170.022,233.848 170.713,232.664 172.094,231.875L290.479,175.938C290.873,175.741 291.367,175.642 291.959,175.642C293.34,175.642 294.03,176.432 294.03,178.01L294.03,183.633C294.03,185.014 293.34,186.1 291.959,186.889L182.749,237.794C181.959,238.386 181.959,238.978 182.749,239.57L291.959,290.476C293.34,291.265 294.03,292.35 294.03,293.731L294.03,299.354Z" style="fill:#fdd701;fill-rule:nonzero;"/>
    </g>
    <g transform="matrix(1.01598,0,0,1.01598,-172.739,-109.891)">
        <path d="M362.989,261.767C361.016,261.767 360.03,260.781 360.03,258.808L360.03,238.09C360.03,230.001 361.954,223.44 365.801,218.409C369.649,213.377 375.518,207.606 383.411,201.095C389.33,196.36 394.016,192.216 397.469,188.665C400.922,185.113 403.832,180.723 406.2,175.494C408.568,170.266 409.751,164.199 409.751,157.293C409.751,145.652 406.2,136.329 399.097,129.324C391.994,122.32 382.72,118.818 371.276,118.818C359.635,118.818 350.214,122.32 343.012,129.324C335.81,136.329 332.209,145.553 332.209,156.997L332.209,167.947C332.209,169.92 331.223,170.907 329.25,170.907L323.627,170.611C321.653,170.611 320.667,169.624 320.667,167.651L320.667,156.997C320.667,142.593 325.353,130.853 334.725,121.777C344.097,112.701 356.281,108.163 371.276,108.163C386.272,108.163 398.357,112.652 407.532,121.629C416.707,130.607 421.294,142.593 421.294,157.589C421.294,166.27 419.913,173.768 417.15,180.082C414.388,186.396 411.034,191.624 407.088,195.768C403.142,199.911 398.11,204.449 391.994,209.382C385.088,214.907 380.057,219.642 376.9,223.588C373.743,227.534 372.164,232.467 372.164,238.386L372.164,258.808C372.164,260.781 371.178,261.767 369.205,261.767L362.989,261.767ZM366.245,316.816C362.299,316.816 359.043,315.534 356.478,312.969C353.913,310.404 352.631,307.148 352.631,303.202C352.631,299.256 353.913,296.049 356.478,293.583C359.043,291.117 362.299,289.884 366.245,289.884C370.191,289.884 373.397,291.117 375.864,293.583C378.33,296.049 379.563,299.256 379.563,303.202C379.563,307.148 378.33,310.404 375.864,312.969C373.397,315.534 370.191,316.816 366.245,316.816Z" style="fill:#fdd701;fill-rule:nonzero;"/>
    </g>
    <g transform="matrix(1.01598,0,0,1.01598,-179.739,-113.891)">
        <path d="M572.234,206.126C573.418,210.665 574.158,215.696 574.454,221.22C574.75,226.745 574.898,234.144 574.898,243.418C574.898,252.494 574.75,259.893 574.454,265.615C574.158,271.337 573.418,276.467 572.234,281.005C569.472,292.843 563.454,302.363 554.181,309.565C544.907,316.767 533.562,320.368 520.145,320.368C511.069,320.368 502.979,318.444 495.876,314.596C488.773,310.749 483.051,305.471 478.711,298.762C478.316,298.368 477.971,298.171 477.675,298.171C477.379,298.171 477.231,298.467 477.231,299.058L477.231,373.641C477.231,375.614 476.244,376.6 474.271,376.6L468.648,376.6C466.675,376.6 465.688,375.614 465.688,373.641L465.688,172.387C465.688,170.414 466.675,169.427 468.648,169.427L474.271,169.427C476.244,169.427 477.231,170.414 477.231,172.387L477.231,188.665C477.231,189.257 477.379,189.553 477.675,189.553C477.971,189.553 478.316,189.355 478.711,188.961C483.051,182.055 488.823,176.678 496.024,172.831C503.226,168.983 511.266,167.059 520.145,167.059C533.562,167.059 544.858,170.611 554.033,177.714C563.208,184.817 569.275,194.288 572.234,206.126ZM560.1,278.933C561.284,275.381 562.073,271.435 562.468,267.095C562.862,262.754 563.06,255.059 563.06,244.01C563.06,232.763 562.912,225.019 562.616,220.777C562.32,216.534 561.678,212.638 560.692,209.086C558.916,199.813 554.181,192.216 546.486,186.297C538.791,180.378 529.616,177.418 518.961,177.418C508.504,177.418 499.872,180.427 493.065,186.445C486.258,192.463 481.867,200.01 479.894,209.086C478.908,212.638 478.217,216.534 477.823,220.777C477.428,225.019 477.231,232.566 477.231,243.418C477.231,254.467 477.428,262.113 477.823,266.355C478.217,270.597 478.908,274.691 479.894,278.637C481.67,287.713 486.011,295.211 492.917,301.13C499.822,307.049 508.504,310.009 518.961,310.009C529.419,310.009 538.347,307.099 545.746,301.278C553.145,295.458 557.93,288.009 560.1,278.933Z" style="fill:#fdd701;fill-rule:nonzero;"/>
    </g>
    <g transform="matrix(1.01598,0,0,1.01598,-191.739,-113.891)">
        <path d="M683.22,176.53C683.22,178.503 682.234,179.49 680.261,179.49L644.449,179.49C643.66,179.49 643.265,179.884 643.265,180.674L643.265,278.933C643.265,289.588 645.732,297.036 650.664,301.278C655.597,305.52 663.292,307.641 673.749,307.641L680.261,307.641C682.234,307.641 683.22,308.628 683.22,310.601L683.22,315.04C683.22,317.013 682.234,318 680.261,318L672.861,318C659.642,318 649.53,315.336 642.525,310.009C635.521,304.682 632.019,295.014 632.019,281.005L632.019,180.674C632.019,179.884 631.624,179.49 630.835,179.49L612.781,179.49C610.808,179.49 609.822,178.503 609.822,176.53L609.822,172.387C609.822,170.414 610.808,169.427 612.781,169.427L630.835,169.427C631.624,169.427 632.019,169.033 632.019,168.243L632.019,134.8C632.019,132.827 633.005,131.84 634.978,131.84L640.306,131.84C642.279,131.84 643.265,132.827 643.265,134.8L643.265,168.243C643.265,169.033 643.66,169.427 644.449,169.427L680.261,169.427C682.234,169.427 683.22,170.414 683.22,172.387L683.22,176.53Z" style="fill:#fdd701;fill-rule:nonzero;"/>
    </g>
</svg>
